<?xml version="1.0" encoding="UTF-8"?>
<!DOCTYPE svg PUBLIC "-//W3C//DTD SVG 1.1//EN" "http://www.w3.org/Graphics/SVG/1.1/DTD/svg11.dtd">
<!-- Creator: CorelDRAW 2021.5 -->
<svg xmlns="http://www.w3.org/2000/svg" xml:space="preserve" width="79.6673mm" height="59.5982mm" version="1.1" style="shape-rendering:geometricPrecision; text-rendering:geometricPrecision; image-rendering:optimizeQuality; fill-rule:evenodd; clip-rule:evenodd"
viewBox="0 0 459.42 343.69"
 xmlns:xlink="http://www.w3.org/1999/xlink"
 xmlns:xodm="http://www.corel.com/coreldraw/odm/2003">
 <defs>
  <style type="text/css">
   <![CDATA[
    .fil1 {fill:#FEFEFE}
    .fil0 {fill:#FEFEFE;fill-rule:nonzero}
   ]]>
  </style>
 </defs>
 <g id="Слой_x0020_1">
  <metadata id="CorelCorpID_0Corel-Layer"/>
  <path class="fil0" d="M39.11 272.97c-3.34,-6.9 -10.09,-10.9 -18.39,-10.9 -11.54,0 -20.71,8.68 -20.71,20.55 0,12.19 9.33,20.77 21.04,20.77 7.82,0 14.51,-4.15 18.23,-11.11l-4.75 0c-3.24,5.18 -8.63,7.5 -13.49,7.5 -9.49,0 -17.05,-7.34 -17.05,-17.15 0,-9.12 6.74,-16.94 16.78,-16.94 8.58,0 12.51,5.61 13.59,7.28l4.75 0z"/>
  <path id="_1" class="fil0" d="M44.99 302.7l3.99 0 0 -29.51 -3.99 0 0 29.51zm0 -33.12l3.99 0 0 -6.8 -3.99 0 0 6.8z"/>
  <path id="_2" class="fil0" d="M81.77 273.19l-3.99 0 0 16.18c0,8.31 -4.96,10.41 -9.06,10.41 -4.58,0 -9.39,-2.8 -9.39,-11.06l0 -15.53 -3.99 0 0 15.53c0,10.52 6.04,14.67 12.89,14.67 3.94,0 7.39,-1.62 9.66,-4.96l0.11 0 0 4.26 3.78 0 0 -29.51z"/>
  <path id="_3" class="fil0" d="M88.57 302.7l3.99 0 0 -16.88c0,-1.24 -0.11,-9.71 7.98,-9.71 5.45,0 7.98,4.05 7.98,9.71l0 16.88 3.99 0 0 -16.88c0,-2.1 -0.11,-4.8 1.83,-7.07 1.24,-1.46 3.51,-2.64 5.99,-2.64 3.02,0 8.15,1.56 8.15,9.71l0 16.88 3.99 0 0 -16.83c0,-10.79 -7.28,-13.43 -11.92,-13.43 -4.05,0 -7.93,2.1 -9.98,5.72 -1.08,-2.05 -3.88,-5.66 -10.03,-5.66 -3.13,0 -6.31,1.4 -8.09,4.53l-0.11 0 0 -3.83 -3.78 0 0 29.51z"/>
  <path id="_4" class="fil0" d="M169.21 273.19l-3.78 0 0 5.12 -0.11 0c-3.56,-5.45 -9.06,-5.83 -11.6,-5.83 -10.57,0 -15.7,8.25 -15.7,15.27 0,9.17 6.96,15.64 15.8,15.64 6.42,0 9.82,-3.67 11.49,-6.2l0.11 0 0 5.5 3.78 0 0 -29.51zm-15.48 2.91c6.69,0 11.71,5.34 11.71,12.03 0,6.47 -5.12,11.65 -11.6,11.65 -6.31,0 -11.81,-4.96 -11.81,-11.71 0,-6.85 5.29,-11.98 11.7,-11.98z"/>
  <path id="_5" class="fil0" d="M200.55 294.06c-2.1,3.72 -5.88,5.72 -9.93,5.72 -6.42,0 -11.76,-5.18 -11.76,-11.92 0,-6.53 4.91,-11.76 11.76,-11.76 1.35,0 6.96,0.22 9.93,6.04l4.48 0c-2.32,-5.83 -7.55,-9.66 -14.4,-9.66 -10.3,0 -15.75,8.36 -15.75,15.43 0,7.71 5.66,15.48 15.75,15.48 8.09,0 12.35,-4.96 14.35,-9.33l-4.42 0z"/>
  <path id="_6" class="fil0" d="M225.21 272.49c-8.74,0 -15.43,6.69 -15.43,15.48 0,8.79 6.74,15.43 15.43,15.43 8.68,0 15.43,-6.63 15.43,-15.43 0,-8.79 -6.69,-15.48 -15.43,-15.48zm0 3.61c6.63,0 11.44,5.18 11.44,11.87 0,6.69 -4.8,11.81 -11.44,11.81 -6.64,0 -11.44,-5.12 -11.44,-11.81 0,-6.69 4.8,-11.87 11.44,-11.87z"/>
  <polygon id="_7" class="fil0" points="253.96,302.7 258.11,302.7 270.73,273.19 266.42,273.19 256.06,297.62 245.7,273.19 241.39,273.19 "/>
  <path id="_8" class="fil0" d="M302.34 273.19l-3.78 0 0 5.12 -0.11 0c-3.56,-5.45 -9.06,-5.83 -11.6,-5.83 -10.57,0 -15.7,8.25 -15.7,15.27 0,9.17 6.96,15.64 15.8,15.64 6.42,0 9.82,-3.67 11.49,-6.2l0.11 0 0 5.5 3.78 0 0 -29.51zm-15.48 2.91c6.69,0 11.71,5.34 11.71,12.03 0,6.47 -5.12,11.65 -11.6,11.65 -6.31,0 -11.81,-4.96 -11.81,-11.71 0,-6.85 5.29,-11.98 11.7,-11.98z"/>
  <polygon id="_9" class="fil0" points="322.3,302.7 344.2,302.7 344.2,299.08 326.29,299.08 326.29,284.41 343.61,284.41 343.61,280.79 326.29,280.79 326.29,266.39 344.2,266.39 344.2,262.78 322.3,262.78 "/>
  <polygon id="_10" class="fil0" points="350.62,302.7 354.61,302.7 354.61,262.78 350.62,262.78 "/>
  <path id="_11" class="fil0" d="M390.81 289.37c0.05,-7.61 -3.99,-16.88 -15.16,-16.88 -10.03,0 -15.37,8.2 -15.37,15.48 0,8.85 6.69,15.43 15.37,15.43 6.69,0 12.08,-3.94 14.46,-10.3l-4.15 0c-1.83,4.05 -5.66,6.69 -10.3,6.69 -6.2,0 -10.73,-4.53 -11.22,-10.41l26.38 0zm-26.38 -3.61c0.97,-5.61 5.56,-9.66 11.22,-9.66 5.12,0 9.71,3.67 10.84,9.66l-22.06 0z"/>
  <path id="_12" class="fil0" d="M396.47 302.7l3.99 0 0 -16.18c0,-8.31 4.96,-10.41 9.06,-10.41 9.22,0 9.39,8.9 9.39,11.06l0 15.53 3.99 0 0 -15.53c0,-10.52 -6.2,-14.67 -12.89,-14.67 -3.88,0 -7.39,1.62 -9.66,4.96l-0.11 0 0 -4.26 -3.78 0 0 29.51z"/>
  <path id="_13" class="fil0" d="M459.42 273.19l-3.78 0 0 5.12 -0.11 0c-3.56,-5.45 -9.06,-5.83 -11.6,-5.83 -10.57,0 -15.7,8.25 -15.7,15.27 0,9.17 6.96,15.64 15.8,15.64 6.42,0 9.82,-3.67 11.49,-6.2l0.11 0 0 5.5 3.78 0 0 -29.51zm-15.48 2.91c6.69,0 11.71,5.34 11.71,12.03 0,6.47 -5.12,11.65 -11.6,11.65 -6.31,0 -11.81,-4.96 -11.81,-11.71 0,-6.85 5.29,-11.98 11.7,-11.98z"/>
  <path class="fil0" d="M75.5 326.32c-1.41,-2.91 -4.25,-4.59 -7.74,-4.59 -4.86,0 -8.72,3.66 -8.72,8.65 0,5.13 3.93,8.74 8.85,8.74 3.29,0 6.11,-1.75 7.67,-4.68l-2 0c-1.36,2.18 -3.63,3.16 -5.68,3.16 -4,0 -7.17,-3.09 -7.17,-7.22 0,-3.84 2.84,-7.13 7.06,-7.13 3.61,0 5.27,2.36 5.72,3.07l2 0z"/>
  <polygon id="_1_0" class="fil0" points="77.97,338.83 79.65,338.83 79.65,322.03 77.97,322.03 "/>
  <path id="_2_1" class="fil0" d="M82.51 338.83l1.68 0 0 -12.42 -1.68 0 0 12.42zm0 -13.94l1.68 0 0 -2.86 -1.68 0 0 2.86z"/>
  <path id="_3_2" class="fil0" d="M87.05 338.83l1.68 0 0 -6.81c0,-3.5 2.09,-4.38 3.81,-4.38 3.88,0 3.95,3.75 3.95,4.65l0 6.54 1.68 0 0 -6.54c0,-4.43 -2.61,-6.18 -5.43,-6.18 -1.63,0 -3.11,0.68 -4.06,2.09l-0.05 0 0 -1.79 -1.59 0 0 12.42z"/>
  <path id="_4_3" class="fil0" d="M100.9 338.83l1.68 0 0 -12.42 -1.68 0 0 12.42zm0 -13.94l1.68 0 0 -2.86 -1.68 0 0 2.86z"/>
  <path id="_5_4" class="fil0" d="M115.77 335.19c-0.89,1.57 -2.47,2.41 -4.18,2.41 -2.7,0 -4.95,-2.18 -4.95,-5.02 0,-2.75 2.07,-4.95 4.95,-4.95 0.57,0 2.93,0.09 4.18,2.54l1.88 0c-0.98,-2.45 -3.18,-4.06 -6.06,-4.06 -4.34,0 -6.63,3.52 -6.63,6.49 0,3.25 2.38,6.52 6.63,6.52 3.41,0 5.2,-2.09 6.04,-3.93l-1.86 0z"/>
  <path id="_6_5" class="fil0" d="M132.78 326.41l-1.59 0 0 2.16 -0.05 0c-1.5,-2.29 -3.81,-2.45 -4.88,-2.45 -4.45,0 -6.61,3.47 -6.61,6.43 0,3.86 2.93,6.58 6.65,6.58 2.7,0 4.13,-1.54 4.84,-2.61l0.05 0 0 2.32 1.59 0 0 -12.42zm-6.52 1.23c2.82,0 4.93,2.25 4.93,5.06 0,2.72 -2.16,4.9 -4.88,4.9 -2.66,0 -4.97,-2.09 -4.97,-4.93 0,-2.88 2.22,-5.04 4.93,-5.04z"/>
  <polygon id="_7_6" class="fil0" points="135.64,338.83 137.32,338.83 137.32,322.03 135.64,322.03 "/>
  <path id="_8_7" class="fil0" d="M157.71 327.93l-2.43 4.72 -3.18 -3.13c1.45,-0.64 3.29,-1.79 3.29,-3.77 0,-1.93 -1.32,-4.02 -4.13,-4.02 -2.63,0 -3.93,1.93 -3.93,3.7 0,1.59 0.91,2.79 1.86,3.59 -1.52,0.54 -3.86,2 -3.86,4.9 0,2.95 2,5.2 5.2,5.2 2.47,0 3.7,-1.27 4.79,-3.13l0.36 -0.61 3.84 3.75 1.2 -1.14 -4.25 -4.13 3.11 -5.93 -1.88 0zm-7.31 2.29l4.04 3.95 -0.41 0.77c-0.84,1.59 -1.88,2.66 -3.63,2.66 -2.02,0 -3.38,-1.63 -3.38,-3.54 0,-0.79 0.32,-2.43 2.54,-3.45l0.84 -0.39zm0.3 -2.09c-1.41,-1.16 -1.68,-2.11 -1.68,-2.77 0,-1.41 1.16,-2.11 2.34,-2.11 1.5,0 2.36,1.07 2.36,2.27 0,0.93 -0.64,2 -2.77,2.82l-0.25 -0.2z"/>
  <polygon id="_9_8" class="fil0" points="168.24,338.83 169.92,338.83 169.92,322.03 168.24,322.03 "/>
  <path id="_10_9" class="fil0" d="M173.08 338.83l1.68 0 0 -6.81c0,-3.5 2.09,-4.38 3.81,-4.38 3.88,0 3.95,3.75 3.95,4.65l0 6.54 1.68 0 0 -6.54c0,-4.43 -2.61,-6.18 -5.43,-6.18 -1.63,0 -3.11,0.68 -4.06,2.09l-0.05 0 0 -1.79 -1.59 0 0 12.42z"/>
  <polygon id="_11_10" class="fil0" points="188.36,338.83 190.04,338.83 190.04,327.93 192.92,327.93 192.92,326.41 190.04,326.41 190.04,322.03 188.36,322.03 188.36,326.41 185.77,326.41 185.77,327.93 188.36,327.93 "/>
  <path id="_12_11" class="fil0" d="M206.99 333.22c0.02,-3.2 -1.68,-7.11 -6.38,-7.11 -4.22,0 -6.47,3.45 -6.47,6.52 0,3.72 2.82,6.49 6.47,6.49 2.81,0 5.09,-1.66 6.08,-4.34l-1.75 0c-0.77,1.7 -2.38,2.82 -4.34,2.82 -2.61,0 -4.52,-1.91 -4.72,-4.38l11.1 0zm-11.1 -1.52c0.41,-2.36 2.34,-4.06 4.72,-4.06 2.16,0 4.09,1.54 4.56,4.06l-9.29 0z"/>
  <path id="_13_12" class="fil0" d="M221.8 326.41l-1.59 0 0 2.41 -0.04 0c-0.91,-1.7 -2.61,-2.7 -4.88,-2.7 -3.65,0 -6.38,2.88 -6.38,6.54 0,3.52 2.75,6.47 6.47,6.47 2.25,0 3.88,-1.07 4.7,-2.75l0.05 0 0 0.68c0,1.39 -0.2,5.11 -4.56,5.11 -1.77,0 -3.75,-1 -4.59,-3.04l-1.68 0c0.84,2.72 3.16,4.56 6.29,4.56 3.22,0 6.22,-1.86 6.22,-6.63l0 -10.65zm-6.49 1.23c2.68,0 4.9,2.11 4.9,4.99 0,2.75 -2.02,4.97 -4.81,4.97 -2.84,0 -4.81,-2.32 -4.81,-5.04 0,-2.75 1.98,-4.93 4.72,-4.93z"/>
  <path id="_14" class="fil0" d="M224.66 338.83l1.68 0 0 -7.36c0,-2.52 1.93,-3.56 3.52,-3.65l0 -1.68c-1.52,-0.05 -2.88,0.73 -3.56,2.07l-0.05 0 0 -1.79 -1.59 0 0 12.42z"/>
  <path id="_15" class="fil0" d="M243.43 326.41l-1.59 0 0 2.16 -0.05 0c-1.5,-2.29 -3.81,-2.45 -4.88,-2.45 -4.45,0 -6.61,3.47 -6.61,6.43 0,3.86 2.93,6.58 6.65,6.58 2.7,0 4.13,-1.54 4.84,-2.61l0.05 0 0 2.32 1.59 0 0 -12.42zm-6.52 1.23c2.82,0 4.93,2.25 4.93,5.06 0,2.72 -2.16,4.9 -4.88,4.9 -2.66,0 -4.97,-2.09 -4.97,-4.93 0,-2.88 2.22,-5.04 4.93,-5.04z"/>
  <polygon id="_16" class="fil0" points="247.72,338.83 249.4,338.83 249.4,327.93 252.29,327.93 252.29,326.41 249.4,326.41 249.4,322.03 247.72,322.03 247.72,326.41 245.14,326.41 245.14,327.93 247.72,327.93 "/>
  <path id="_17" class="fil0" d="M253.99 338.83l1.68 0 0 -12.42 -1.68 0 0 12.42zm0 -13.94l1.68 0 0 -2.86 -1.68 0 0 2.86z"/>
  <polygon id="_18" class="fil0" points="262.5,338.83 264.25,338.83 269.56,326.41 267.75,326.41 263.39,336.69 259.03,326.41 257.21,326.41 "/>
  <path id="_19" class="fil0" d="M282.73 333.22c0.02,-3.2 -1.68,-7.11 -6.38,-7.11 -4.22,0 -6.47,3.45 -6.47,6.52 0,3.72 2.82,6.49 6.47,6.49 2.81,0 5.09,-1.66 6.08,-4.34l-1.75 0c-0.77,1.7 -2.38,2.82 -4.34,2.82 -2.61,0 -4.52,-1.91 -4.72,-4.38l11.1 0zm-11.1 -1.52c0.41,-2.36 2.34,-4.06 4.72,-4.06 2.16,0 4.09,1.54 4.56,4.06l-9.29 0z"/>
  <polygon id="_20" class="fil0" points="290.65,338.83 292.34,338.83 292.34,324.07 302.41,338.83 304.1,338.83 304.1,322.03 302.41,322.03 302.41,335.97 292.93,322.03 290.65,322.03 "/>
  <path id="_21" class="fil0" d="M318.15 326.41l-1.68 0 0 6.81c0,3.5 -2.09,4.38 -3.81,4.38 -1.93,0 -3.95,-1.18 -3.95,-4.65l0 -6.54 -1.68 0 0 6.54c0,4.43 2.54,6.18 5.43,6.18 1.66,0 3.11,-0.68 4.06,-2.09l0.04 0 0 1.79 1.59 0 0 -12.42z"/>
  <polygon id="_22" class="fil0" points="322.44,338.83 324.12,338.83 324.12,327.93 327,327.93 327,326.41 324.12,326.41 324.12,322.03 322.44,322.03 322.44,326.41 319.85,326.41 319.85,327.93 322.44,327.93 "/>
  <path id="_23" class="fil0" d="M328.7 338.83l1.68 0 0 -7.36c0,-2.52 1.93,-3.56 3.52,-3.65l0 -1.68c-1.52,-0.05 -2.88,0.73 -3.56,2.07l-0.05 0 0 -1.79 -1.59 0 0 12.42z"/>
  <path id="_24" class="fil0" d="M335.54 338.83l1.68 0 0 -12.42 -1.68 0 0 12.42zm0 -13.94l1.68 0 0 -2.86 -1.68 0 0 2.86z"/>
  <polygon id="_25" class="fil0" points="341.51,338.83 343.19,338.83 343.19,327.93 346.07,327.93 346.07,326.41 343.19,326.41 343.19,322.03 341.51,322.03 341.51,326.41 338.92,326.41 338.92,327.93 341.51,327.93 "/>
  <path id="_26" class="fil0" d="M347.78 338.83l1.68 0 0 -12.42 -1.68 0 0 12.42zm0 -13.94l1.68 0 0 -2.86 -1.68 0 0 2.86z"/>
  <path id="_27" class="fil0" d="M358.33 326.11c-3.68,0 -6.49,2.82 -6.49,6.52 0,3.7 2.84,6.49 6.49,6.49 3.65,0 6.49,-2.79 6.49,-6.49 0,-3.7 -2.82,-6.52 -6.49,-6.52zm0 1.52c2.79,0 4.81,2.18 4.81,4.99 0,2.82 -2.02,4.97 -4.81,4.97 -2.79,0 -4.81,-2.16 -4.81,-4.97 0,-2.81 2.02,-4.99 4.81,-4.99z"/>
  <path id="_28" class="fil0" d="M367.19 338.83l1.68 0 0 -6.81c0,-3.5 2.09,-4.38 3.81,-4.38 3.88,0 3.95,3.75 3.95,4.65l0 6.54 1.68 0 0 -6.54c0,-4.43 -2.61,-6.18 -5.43,-6.18 -1.63,0 -3.11,0.68 -4.06,2.09l-0.05 0 0 -1.79 -1.59 0 0 12.42z"/>
  <path id="_29" class="fil0" d="M381.04 338.83l1.68 0 0 -12.42 -1.68 0 0 12.42zm0 -13.94l1.68 0 0 -2.86 -1.68 0 0 2.86z"/>
  <path id="_30" class="fil0" d="M384.65 335.17c0,2.07 1.2,3.95 3.79,3.95 2.54,0 4,-1.68 4,-3.95 0,-2.34 -1.75,-2.97 -3.22,-3.45 -1.16,-0.36 -2.43,-0.82 -2.43,-2.25 0,-1.04 0.68,-1.84 1.86,-1.84 1.04,0 1.82,0.75 1.79,1.86l1.68 0c0.02,-1.91 -1.39,-3.38 -3.43,-3.38 -2.25,0 -3.59,1.54 -3.59,3.5 0,2.36 1.95,3.04 3.25,3.47 1.18,0.41 2.41,0.84 2.41,2.36 0,1.11 -0.75,2.16 -2.18,2.16 -1.5,0 -2.36,-1.16 -2.25,-2.43l-1.68 0z"/>
  <polygon id="_31" class="fil0" points="395.81,338.83 397.5,338.83 397.5,327.93 400.38,327.93 400.38,326.41 397.5,326.41 397.5,322.03 395.81,322.03 395.81,326.41 393.23,326.41 393.23,327.93 395.81,327.93 "/>
  <path class="fil1" d="M195.04 193.46c1.39,-0.2 2.68,0.76 2.88,2.14 0.2,1.39 -0.76,2.68 -2.14,2.88 -2.42,0.36 -4.89,0.64 -7.38,0.82 -2.49,0.18 -4.97,0.28 -7.44,0.28 -27.41,0 -52.23,-11.21 -70.22,-29.27 -17.98,-18.05 -29.11,-42.96 -29.16,-70.35l-0 -0.26c0.02,-27.43 11.16,-52.37 29.16,-70.45 17.98,-18.06 42.81,-29.27 70.22,-29.27 27.44,0 52.29,11.12 70.27,29.11 17.98,17.98 29.11,42.83 29.11,70.27l-0 0.81c-0.01,0 -0.01,0.01 0,0.01 0,17.29 -4.42,33.55 -12.19,47.72 -7.96,14.52 -19.46,26.83 -33.33,35.8 13.05,6.88 27.9,10.78 43.65,10.78 26.04,0 49.62,-10.55 66.68,-27.62 17.06,-17.06 27.62,-40.64 27.62,-66.68 0.01,0 0.01,-0.01 -0,-0.01l0 -0.93c-0.03,-25.99 -10.58,-49.53 -27.62,-66.57 -17.06,-17.06 -40.64,-27.62 -66.68,-27.62 -2.37,0 -4.68,0.08 -6.94,0.25 -2.31,0.17 -4.61,0.42 -6.88,0.76 -1.39,0.2 -2.68,-0.76 -2.88,-2.14 -0.2,-1.39 0.76,-2.68 2.14,-2.88 2.39,-0.35 4.81,-0.62 7.26,-0.8 2.44,-0.18 4.88,-0.27 7.3,-0.27 27.44,0 52.29,11.12 70.27,29.11 17.98,17.98 29.11,42.83 29.11,70.27l-0 0.81c-0.01,0 -0.01,0.01 0,0.01 0,27.44 -11.12,52.29 -29.11,70.27 -17.98,17.98 -42.83,29.11 -70.27,29.11 -27.41,0 -52.23,-11.21 -70.22,-29.27 -17.97,-18.05 -29.11,-42.95 -29.16,-70.33l-0 -0.27c0.02,-17.75 4.7,-34.47 12.88,-48.97 7.97,-14.12 19.27,-26.11 32.81,-34.89 -13.09,-6.88 -28,-10.78 -43.83,-10.78 -26.02,0 -49.57,10.63 -66.62,27.76 -17.1,17.17 -27.67,40.87 -27.67,66.95 0,26.08 10.58,49.78 27.67,66.95 17.06,17.13 40.61,27.76 66.62,27.76 2.42,0 4.78,-0.09 7.09,-0.26 2.35,-0.17 4.69,-0.44 7.01,-0.78zm37 -173.35l0 62.43c15.9,-14.66 28.56,-24.91 32.05,-27.69 -4.39,-8.18 -9.95,-15.64 -16.46,-22.14 -4.73,-4.73 -9.95,-8.95 -15.59,-12.59zm0 69.34l0 39.16 41.56 -35.4c0.41,-0.35 0.91,-0.55 1.41,-0.6 -0.84,-11.77 -3.83,-22.95 -8.59,-33.13 -4.67,3.76 -18.13,14.78 -34.38,29.97zm0 45.82l0 44.21c13.16,-8.5 24.08,-20.2 31.65,-34 7.37,-13.43 11.56,-28.87 11.56,-45.28 0.01,0 0.01,-0.01 -0,-0.01l0 -0.93c-0,-0.27 -0,-0.53 -0.01,-0.79l-43.2 36.8zm-5.08 43.81l0 -43.81 -42.78 -36.44c-0,0.32 -0.01,0.64 -0.01,0.96 0,26.08 10.58,49.78 27.67,66.95 4.59,4.61 9.66,8.75 15.11,12.34zm0 -50.47l0 -39.16c-15.79,-14.77 -28.95,-25.6 -33.97,-29.64 -4.71,10.12 -7.69,21.21 -8.56,32.88 0.35,0.1 0.68,0.27 0.97,0.52l41.56 35.4zm0 -46.08l0 -62.03c-12.62,8.3 -23.13,19.54 -30.58,32.73 -0.36,0.64 -0.72,1.29 -1.06,1.94 3.98,3.19 16.3,13.23 31.65,27.37z"/>
 </g>
</svg>
