<?xml version="1.0" encoding="UTF-8"?>
<!DOCTYPE svg PUBLIC "-//W3C//DTD SVG 1.1//EN" "http://www.w3.org/Graphics/SVG/1.1/DTD/svg11.dtd">
<!-- Creator: CorelDRAW 2021.5 -->
<svg xmlns="http://www.w3.org/2000/svg" xml:space="preserve" width="51.3778mm" height="34.6098mm" version="1.1" style="shape-rendering:geometricPrecision; text-rendering:geometricPrecision; image-rendering:optimizeQuality; fill-rule:evenodd; clip-rule:evenodd"
viewBox="0 0 187.24 126.13"
 xmlns:xlink="http://www.w3.org/1999/xlink"
 xmlns:xodm="http://www.corel.com/coreldraw/odm/2003">
 <defs>
  <style type="text/css">
   <![CDATA[
    .fil0 {fill:black}
   ]]>
  </style>
 </defs>
 <g id="Слой_x0020_1">
  <metadata id="CorelCorpID_0Corel-Layer"/>
  <path class="fil0" d="M71.71 122.26c0.88,-0.13 1.69,0.48 1.82,1.35 0.13,0.88 -0.48,1.69 -1.35,1.82 -1.53,0.23 -3.09,0.4 -4.67,0.52 -1.57,0.12 -3.14,0.18 -4.7,0.18 -17.32,0 -33.01,-7.08 -44.37,-18.5 -11.36,-11.41 -18.4,-27.15 -18.43,-44.46l-0 -0.16c0.01,-17.34 7.06,-33.1 18.43,-44.52 11.36,-11.41 27.05,-18.5 44.37,-18.5 17.34,0 33.05,7.03 44.41,18.4 11.37,11.37 18.4,27.07 18.4,44.41l-0 0.51c-0.01,0 -0.01,0 0,0 0,10.93 -2.79,21.2 -7.71,30.16 -5.03,9.17 -12.3,16.96 -21.06,22.62 8.25,4.35 17.63,6.81 27.59,6.81 16.46,0 31.36,-6.67 42.14,-17.45 10.78,-10.78 17.45,-25.68 17.45,-42.14 0.01,0 0.01,-0 -0,-0l0 -0.59c-0.02,-16.43 -6.69,-31.3 -17.45,-42.07 -10.78,-10.78 -25.68,-17.45 -42.14,-17.45 -1.5,0 -2.96,0.05 -4.39,0.16 -1.46,0.11 -2.91,0.27 -4.35,0.48 -0.88,0.13 -1.69,-0.48 -1.82,-1.35 -0.13,-0.88 0.48,-1.69 1.35,-1.82 1.51,-0.22 3.04,-0.39 4.59,-0.51 1.54,-0.11 3.08,-0.17 4.61,-0.17 17.34,0 33.05,7.03 44.41,18.4 11.37,11.37 18.4,27.07 18.4,44.41l-0 0.51c-0.01,0 -0.01,0 0,0 0,17.34 -7.03,33.05 -18.4,44.41 -11.37,11.37 -27.07,18.4 -44.41,18.4 -17.32,0 -33.01,-7.08 -44.37,-18.5 -11.36,-11.41 -18.4,-27.14 -18.43,-44.45l-0 -0.17c0.01,-11.22 2.97,-21.78 8.14,-30.94 5.04,-8.92 12.18,-16.5 20.73,-22.05 -8.27,-4.35 -17.7,-6.81 -27.7,-6.81 -16.44,0 -31.33,6.72 -42.1,17.54 -10.8,10.85 -17.49,25.83 -17.49,42.31 0,16.48 6.68,31.46 17.49,42.31 10.78,10.82 25.66,17.54 42.1,17.54 1.53,0 3.02,-0.06 4.48,-0.16 1.49,-0.11 2.96,-0.28 4.43,-0.5zm23.38 -109.55l0 39.45c10.05,-9.26 18.05,-15.74 20.25,-17.5 -2.77,-5.17 -6.29,-9.88 -10.4,-13.99 -2.99,-2.99 -6.29,-5.66 -9.85,-7.96zm0 43.82l0 24.75 26.26 -22.37c0.26,-0.22 0.57,-0.35 0.89,-0.38 -0.53,-7.44 -2.42,-14.5 -5.43,-20.94 -2.95,2.37 -11.46,9.34 -21.72,18.94zm0 28.96l0 27.94c8.32,-5.37 15.22,-12.77 20,-21.49 4.66,-8.49 7.3,-18.24 7.3,-28.62 0.01,0 0.01,-0 -0,-0l0 -0.59c-0,-0.17 -0,-0.33 -0,-0.5l-27.3 23.26zm-3.21 27.69l0 -27.69 -27.04 -23.03c-0,0.2 -0,0.4 -0,0.61 0,16.48 6.68,31.46 17.49,42.31 2.9,2.92 6.1,5.53 9.55,7.8zm0 -31.9l0 -24.75c-9.98,-9.33 -18.3,-16.18 -21.47,-18.73 -2.98,6.4 -4.86,13.41 -5.41,20.78 0.22,0.06 0.43,0.17 0.61,0.33l26.26 22.37zm0 -29.12l0 -39.2c-7.97,5.25 -14.62,12.35 -19.33,20.68 -0.23,0.41 -0.45,0.81 -0.67,1.22 2.52,2.02 10.3,8.36 20,17.3z"/>
 </g>
</svg>
