<svg width="31" height="28" viewBox="0 0 31 28" fill="none" xmlns="http://www.w3.org/2000/svg">
<path d="M15.5 0.609375C15.3652 0.609375 15.2308 0.649386 15.1161 0.730586L0.856141 11.1423C0.589541 11.3395 0.539989 11.7038 0.750789 11.959C0.961589 12.2084 1.35108 12.2548 1.62388 12.0576L2.48001 11.4323V26.6799C2.48001 26.9989 2.75901 27.2599 3.10001 27.2599H11.78V16.8199H19.22V27.2599H27.9C28.241 27.2599 28.52 26.9989 28.52 26.6799V11.4323L29.3761 12.0576C29.4939 12.1388 29.6236 12.1799 29.76 12.1799C29.946 12.1799 30.1252 12.104 30.2492 11.959C30.46 11.7038 30.4105 11.3395 30.1439 11.1423L15.8839 0.730586C15.7692 0.649386 15.6349 0.609375 15.5 0.609375ZM21.7 2.89992V3.50938L25.42 6.22359V2.89992H21.7Z" fill="black"/>
</svg>
