<svg width="32" height="29" viewBox="0 0 32 29" fill="white" xmlns="http://www.w3.org/2000/svg">
<path fill-rule="evenodd" clip-rule="evenodd" d="M16.3 29C24.8604 29 31.8 22.5081 31.8 14.5C31.8 6.49188 24.8604 0 16.3 0C7.73959 0 0.799988 6.49188 0.799988 14.5C0.799988 22.5081 7.73959 29 16.3 29ZM17.3961 6.67484C16.5023 6.69816 15.5593 6.89942 14.8931 7.49151C14.343 7.96758 14.0658 8.66044 14.0035 9.35305C13.9845 9.84846 13.9872 10.3451 13.99 10.8416C13.992 11.214 13.994 11.5862 13.9869 11.9577C13.7422 11.9594 13.4968 11.9589 13.2513 11.9584C12.9239 11.9578 12.5963 11.9571 12.27 11.9616C12.27 12.258 12.2705 12.5549 12.2709 12.852C12.2718 13.4472 12.2727 14.0434 12.27 14.6398C12.5963 14.6442 12.9239 14.6436 13.2513 14.6429C13.4968 14.6425 13.7422 14.642 13.9869 14.6437C13.9924 15.8254 13.9914 17.0072 13.9904 18.1889C13.9891 19.666 13.9878 21.1431 13.9994 22.6202C14.6708 22.6158 15.3407 22.6164 16.0109 22.6171C16.5136 22.6176 17.0165 22.618 17.5201 22.6163C17.5243 21.2869 17.5232 19.9584 17.5222 18.63C17.5211 17.3015 17.5201 15.9731 17.5243 14.6437C17.8629 14.642 18.2016 14.6425 18.5402 14.6429C18.9918 14.6436 19.4433 14.6442 19.8949 14.6398C20.0356 13.7496 20.1554 12.8516 20.2216 11.9499C19.7749 11.948 19.328 11.948 18.8812 11.948C18.4344 11.948 17.9876 11.948 17.5409 11.9461C17.5409 11.7902 17.5406 11.6344 17.5404 11.4786C17.5396 11.0113 17.5388 10.5441 17.545 10.0767C17.6153 9.71671 18.0124 9.44191 18.3973 9.46522H20.2258C20.2299 8.5325 20.2299 7.60368 20.2258 6.67096C19.99 6.67096 19.7542 6.67072 19.5184 6.67049C18.8111 6.66977 18.1036 6.66904 17.3961 6.67484Z" fill="white" />
</svg>
