<svg width="32" height="29" viewBox="0 0 32 29" fill="white" xmlns="http://www.w3.org/2000/svg">
<path d="M13.0063 24.7478C14.2342 25.3911 15.4435 25.7142 16.5701 25.7142C17.5132 25.7139 18.3983 25.4873 19.186 25.0325L22.0894 23.3569C22.1942 23.2965 22.2689 23.2 22.2973 23.0879C22.3257 22.9761 22.305 22.8582 22.2405 22.7602L19.7238 18.9445C19.6592 18.8468 19.5558 18.7769 19.4362 18.7503C19.3157 18.724 19.1903 18.743 19.0859 18.8034L16.1605 20.4925C15.7108 20.7521 15.1337 20.835 14.5786 20.7208C14.0235 20.6064 13.5496 20.3053 13.2784 19.8938L9.30243 13.8659C8.72755 12.9943 9.0173 11.8476 9.94836 11.3098L9.94867 11.3095L12.9849 9.55599C13.2027 9.43028 13.2701 9.16326 13.1357 8.95953L10.6187 5.14467C10.4843 4.94093 10.1986 4.87707 9.9811 5.00335L6.9473 6.75517C3.56598 8.70754 3.6846 13.8326 7.23644 19.2187C8.8647 21.6884 10.914 23.652 13.0063 24.7478ZM7.43445 7.49265L10.0738 5.96885L12.1042 9.04593L9.46213 10.5718C9.46152 10.5721 9.4609 10.5726 9.4609 10.5726C8.09614 11.3618 7.67108 13.0429 8.51409 14.3207L12.4901 20.3483C12.892 20.9584 13.5808 21.4025 14.3797 21.5673C15.1677 21.7288 15.9946 21.6066 16.6474 21.2297L19.1783 19.7684L21.2084 22.846L18.6991 24.2941C16.8667 25.3518 14.8381 24.7131 13.4591 23.991C11.5022 22.9657 9.57211 21.1092 8.02509 18.7633C4.75991 13.8118 4.51711 9.17713 7.43445 7.49265Z" fill="white"/>
<path d="M16.1157 9.69579C17.6152 9.77873 18.9422 10.4995 19.7571 11.6736C20.5362 12.7925 20.7237 14.1638 20.2712 15.4359C20.1902 15.663 20.3215 15.9086 20.5643 15.9838C20.6128 15.9991 20.6619 16.006 20.7107 16.006C20.905 16.006 21.0858 15.8913 21.1503 15.7095C21.6928 14.1854 21.4679 12.5417 20.534 11.2008C19.5721 9.81427 17.9404 8.92796 16.1704 8.83C15.9124 8.81989 15.6956 8.99819 15.6805 9.23718C15.6653 9.47645 15.8602 9.68163 16.1157 9.69579Z" fill="white"/>
<path d="M16.7644 6.47832C19.1925 6.73927 21.3477 7.98566 22.6776 9.89728C23.966 11.7505 24.3312 14.0323 23.6791 16.1578C23.6083 16.3881 23.7504 16.628 23.9963 16.6939C24.0393 16.7054 24.0819 16.7109 24.1245 16.7109C24.3256 16.7109 24.5113 16.5869 24.5693 16.3971C25.2956 14.03 24.8891 11.4884 23.4542 9.4245C21.9733 7.29557 19.5737 5.90787 16.8701 5.61715C16.6208 5.5897 16.3863 5.76049 16.357 5.99832C16.3276 6.23616 16.5099 6.45087 16.7644 6.47832Z" fill="white"/>
<path d="M17.398 3.64467C20.6227 4.06398 23.49 5.76898 25.265 8.32272C27.0038 10.8216 27.5253 13.9079 26.6962 16.7902C26.6294 17.0214 26.7762 17.2592 27.0233 17.3214C27.0635 17.3315 27.1042 17.3364 27.1441 17.3364C27.3483 17.3364 27.5358 17.2092 27.5911 17.0156C28.4888 13.8958 27.9241 10.5548 26.0419 7.84995C24.1205 5.08583 21.0165 3.24009 17.5262 2.7861C17.2738 2.7546 17.0384 2.91846 17.0035 3.15571C16.968 3.39268 17.1447 3.61173 17.398 3.64467Z" fill="white"/>
</svg>
