<svg width="32" height="29" viewBox="0 0 32 29" fill="white" xmlns="http://www.w3.org/2000/svg">
<path fill-rule="evenodd" clip-rule="evenodd" d="M16.3 29C24.8604 29 31.8 22.5081 31.8 14.5C31.8 6.49188 24.8604 0 16.3 0C7.73959 0 0.799988 6.49188 0.799988 14.5C0.799988 22.5081 7.73959 29 16.3 29ZM9.23096 9.33704C9.66698 8.92916 10.2584 8.7 10.875 8.7H21.725C22.3416 8.7 22.933 8.92916 23.369 9.33704C23.805 9.74493 24.05 10.2982 24.05 10.875V18.125C24.05 18.7018 23.805 19.2551 23.369 19.663C22.933 20.0708 22.3416 20.3 21.725 20.3H10.875C10.2584 20.3 9.66698 20.0708 9.23096 19.663C8.79495 19.2551 8.54999 18.7018 8.54999 18.125V10.875C8.54999 10.2982 8.79495 9.74493 9.23096 9.33704ZM16.8502 14.413L21.4072 10.15H11.1927L15.7497 14.413C15.8218 14.4809 15.9075 14.5349 16.002 14.5717C16.0964 14.6085 16.1977 14.6275 16.3 14.6275C16.4023 14.6275 16.5036 14.6085 16.598 14.5717C16.6925 14.5349 16.7782 14.4809 16.8502 14.413ZM22.273 18.6377C22.4183 18.5017 22.5 18.3173 22.5 18.125V11.1722L17.943 15.4352C17.507 15.8426 16.9161 16.0713 16.3 16.0713C15.6839 16.0713 15.0929 15.8426 14.657 15.4352L10.1 11.1722V18.125C10.1 18.3173 10.1816 18.5017 10.327 18.6377C10.4723 18.7736 10.6695 18.85 10.875 18.85H21.725C21.9305 18.85 22.1276 18.7736 22.273 18.6377Z" fill="white"/>
</svg>
