<svg width="31" height="25" viewBox="0 0 31 25" fill="none" xmlns="http://www.w3.org/2000/svg">
<path d="M15.4999 0.729004C15.365 0.729004 15.2307 0.764067 15.116 0.835227L0.856019 9.9595C0.589419 10.1323 0.539867 10.4516 0.750667 10.6753C0.961467 10.8938 1.35095 10.9345 1.62375 10.7616L2.47989 10.2136V23.5759C2.47989 23.8555 2.75889 24.0842 3.09989 24.0842H11.7799V14.9351H19.2199V24.0842H27.8999C28.2409 24.0842 28.5199 23.8555 28.5199 23.5759V10.2136L29.376 10.7616C29.4938 10.8328 29.6235 10.8689 29.7599 10.8689C29.9459 10.8689 30.1251 10.8023 30.2491 10.6753C30.4599 10.4516 30.4104 10.1323 30.1438 9.9595L15.8838 0.835227C15.7691 0.764067 15.6347 0.729004 15.4999 0.729004ZM21.6999 2.73632V3.27042L25.4199 5.64902V2.73632H21.6999Z" fill="white"/>
</svg>
