<svg width="32" height="29" viewBox="0 0 32 29" fill="white" xmlns="http://www.w3.org/2000/svg">
<path fill-rule="evenodd" clip-rule="evenodd" d="M16.3 29C24.8604 29 31.8 22.5081 31.8 14.5C31.8 6.49188 24.8604 0 16.3 0C7.73959 0 0.799988 6.49188 0.799988 14.5C0.799988 22.5081 7.73959 29 16.3 29ZM8.54999 11.4236C8.54999 9.12218 10.5515 7.25 13.0114 7.25H19.5885C22.0487 7.25 24.05 9.12241 24.05 11.4236V17.6328C24.05 19.934 22.0487 21.8064 19.5885 21.8064H13.0114C10.5513 21.8064 8.54999 19.934 8.54999 17.6328V11.4236ZM19.5885 20.4252C21.2344 20.4252 22.5735 19.1725 22.5735 17.6328V11.4236C22.5735 9.88395 21.2344 8.63124 19.5885 8.63124H13.0114C11.3656 8.63124 10.0265 9.88395 10.0265 11.4236V17.6328C10.0265 19.1725 11.3656 20.4252 13.0114 20.4252H19.5885ZM12.2664 14.5016C12.2664 12.4366 14.0816 10.7567 16.3123 10.7567C18.543 10.7567 20.3582 12.4366 20.3582 14.5016C20.3582 16.5663 18.543 18.2461 16.3123 18.2461C14.0813 18.2461 12.2664 16.5663 12.2664 14.5016ZM13.7401 14.5016C13.7401 15.806 14.8939 16.8675 16.3123 16.8675C17.7307 16.8675 18.8845 15.8062 18.8845 14.5016C18.8845 13.1969 17.7305 12.1356 16.3123 12.1356C14.8939 12.1356 13.7401 13.1969 13.7401 14.5016ZM20.4307 11.4943C20.9564 11.4943 21.3826 11.0956 21.3826 10.6037C21.3826 10.1119 20.9564 9.7132 20.4307 9.7132C19.9049 9.7132 19.4787 10.1119 19.4787 10.6037C19.4787 11.0956 19.9049 11.4943 20.4307 11.4943Z" fill="white"/>
</svg>
