<svg width="50" height="50" viewBox="0 0 50 50" fill="none" xmlns="http://www.w3.org/2000/svg">
<path d="M43.764 10.0113L36.3216 3.79083C36.1693 3.66306 35.9707 3.60217 35.7745 3.61964C35.5769 3.6376 35.3937 3.73293 35.2664 3.88516L32.0396 7.74779L29.6029 5.71241C29.284 5.44688 28.8133 5.49031 28.5483 5.80724L23.7742 11.5221C23.6469 11.6743 23.5855 11.8709 23.603 12.0691C23.6209 12.2667 23.7163 12.4494 23.869 12.5767L30.0272 17.7205L18.5259 31.4855L12.3667 26.3392C12.214 26.2124 12.0173 26.15 11.8197 26.168C11.622 26.1855 11.4394 26.2818 11.3121 26.4335L6.53749 32.1479C6.27246 32.4653 6.31439 32.9375 6.63183 33.2025L9.06854 35.2384L6.05435 38.8459C5.92707 38.9987 5.86568 39.1948 5.88315 39.393C5.90111 39.5906 5.99645 39.7733 6.14868 39.9011L13.5931 46.1215C13.7283 46.2343 13.8985 46.2957 14.0732 46.2957C14.0952 46.2957 14.1177 46.2947 14.1401 46.2927C14.3378 46.2752 14.5204 46.1789 14.6477 46.0271L17.6619 42.4201L20.1211 44.4749C20.2563 44.5877 20.4265 44.6491 20.6012 44.6491C20.6232 44.6491 20.6457 44.6481 20.6681 44.6461C20.8658 44.6286 21.0485 44.5323 21.1757 44.3806L25.9508 38.6663C26.2159 38.3488 26.1734 37.8767 25.8565 37.6116L19.6749 32.4458L31.1761 18.6808L37.3597 23.8461C37.495 23.9589 37.6647 24.0203 37.8399 24.0203C37.8624 24.0203 37.8843 24.0193 37.9068 24.0173C38.1044 23.9994 38.2876 23.904 38.4149 23.7513L43.1885 18.036C43.4535 17.7185 43.4111 17.2464 43.0942 16.9814L40.634 14.9265L43.8588 11.0654C44.1233 10.7484 44.0809 10.2768 43.764 10.0113ZM13.9784 44.4914L7.68348 39.2312L10.2175 36.1991L16.5124 41.4588L13.9784 44.4914ZM20.5064 42.8443L18.0832 40.8194C18.0717 40.8084 18.0627 40.796 18.0502 40.786C18.0383 40.776 18.0243 40.769 18.0118 40.76L10.6348 34.596C10.6248 34.5865 10.6168 34.5755 10.6063 34.5665C10.5959 34.5576 10.5834 34.5521 10.5724 34.5436L8.16663 32.5337L11.9814 27.9688L24.3217 38.2794L20.5064 42.8443ZM37.7456 22.217L25.4033 11.9074L29.2176 7.34151L41.5599 17.6507L37.7456 22.217ZM39.4845 13.9667L33.1891 8.70808L35.9358 5.41993L42.2292 10.6806L39.4845 13.9667Z" fill="black"/>
</svg>
