<?xml version="1.0" encoding="iso-8859-1"?>
<!-- Uploaded to: SVG Repo, www.svgrepo.com, Generator: SVG Repo Mixer Tools -->
<svg fill="#000000" height="800px" width="800px" version="1.1" id="Layer_1" xmlns="http://www.w3.org/2000/svg" xmlns:xlink="http://www.w3.org/1999/xlink" 
	 viewBox="0 0 512 512" xml:space="preserve">
<g>
	<g>
		<path d="M157.927,302.278c-13.519,0-24.518,11-24.518,24.518c0,13.519,10.999,24.518,24.518,24.518s24.518-10.999,24.518-24.518
			S171.446,302.278,157.927,302.278z M157.927,334.969c-4.507,0-8.173-3.666-8.173-8.173s3.666-8.173,8.173-8.173
			s8.173,3.667,8.173,8.173C166.1,331.303,162.434,334.969,157.927,334.969z"/>
	</g>
</g>
<g>
	<g>
		<path d="M502.411,312.098L287.183,57.972c-7.788-9.193-19.154-14.464-31.183-14.464s-23.395,5.272-31.184,14.466L30.715,287.153
			c-2.917,3.445-2.489,8.602,0.956,11.519c3.445,2.917,8.6,2.49,11.518-0.956l194.1-229.178c4.676-5.519,11.496-8.686,18.711-8.686
			s14.035,3.166,18.71,8.684L489.94,322.663c8.171,9.645,7.561,24.209-1.386,33.156c-62.117,62.117-144.706,96.326-232.552,96.326
			S85.564,417.937,23.447,355.819c-7.662-7.662-9.21-19.441-4.368-28.723c5.121,5.944,10.452,11.693,15.924,17.167
			c59.031,59.029,137.515,91.538,220.996,91.538c83.466,0,161.954-32.498,221.006-91.511c3.193-3.191,3.195-8.365,0.004-11.557
			c-3.192-3.195-8.366-3.194-11.558-0.003c-55.965,55.926-130.35,86.726-209.452,86.726c-79.115,0-153.493-30.808-209.436-86.75
			c-7.494-7.495-14.711-15.537-21.452-23.903c-1.529-1.898-3.826-3.015-6.264-3.045c-0.033-0.001-0.066-0.001-0.1-0.001
			c-2.401,0-4.682,1.056-6.236,2.89l-2.922,3.451c-13.626,16.083-12.615,40.365,2.299,55.28
			C77.093,432.582,163.787,468.491,256,468.491s178.907-35.909,244.112-101.113C515.027,352.463,516.036,328.181,502.411,312.098z"
			/>
	</g>
</g>
<g>
	<g>
		<circle cx="176.956" cy="190.622" r="8.173"/>
	</g>
</g>
<g>
	<g>
		<circle cx="256.003" cy="386.768" r="8.173"/>
	</g>
</g>
<g>
	<g>
		<circle cx="288.694" cy="354.077" r="8.173"/>
	</g>
</g>
<g>
	<g>
		<circle cx="321.386" cy="223.313" r="8.173"/>
	</g>
</g>
<g>
	<g>
		<path d="M354.073,269.587c-13.519,0-24.518,10.999-24.518,24.518c0,13.519,10.998,24.518,24.518,24.518
			c13.519,0,24.518-10.999,24.518-24.518C378.592,280.586,367.592,269.587,354.073,269.587z M354.073,302.278
			c-4.507,0-8.173-3.666-8.173-8.173c0-4.507,3.666-8.173,8.173-8.173c4.507,0,8.173,3.666,8.173,8.173
			C362.246,298.612,358.58,302.278,354.073,302.278z"/>
	</g>
</g>
<g>
	<g>
		<path d="M256,126.793c-13.519,0-24.518,10.999-24.518,24.518c0,13.519,10.999,24.518,24.518,24.518s24.518-10.999,24.518-24.518
			S269.519,126.793,256,126.793z M256,159.484c-4.507,0-8.173-3.666-8.173-8.173s3.666-8.173,8.173-8.173s8.173,3.666,8.173,8.173
			S260.506,159.484,256,159.484z"/>
	</g>
</g>
</svg>