<svg width="50" height="50" viewBox="0 0 50 50" fill="none" xmlns="http://www.w3.org/2000/svg">
<path d="M24.7965 25.2836C24.1045 24.3523 22.996 23.7483 21.7483 23.7483C19.6572 23.7483 17.9557 25.4488 17.9557 27.5398C17.9557 28.3538 18.2169 29.1329 18.7269 29.8115L24.2144 36.6672C24.3557 36.8438 24.5706 36.9468 24.797 36.9468C25.0239 36.9468 25.2388 36.8433 25.3806 36.6662L30.9886 29.6378C31.0045 29.6179 31.0194 29.597 31.0333 29.5757C31.4294 28.9582 31.6388 28.2543 31.6388 27.5403C31.6388 25.4498 29.9358 23.7488 27.8428 23.7488C26.596 23.7483 25.4886 24.3523 24.7965 25.2836ZM30.1463 27.5393C30.1463 27.9558 30.0254 28.3697 29.7965 28.7383L24.796 35.005L19.9065 28.8965C19.6065 28.497 19.4483 28.0274 19.4483 27.5388C19.4483 26.2712 20.4801 25.2398 21.7483 25.2398C23.0179 25.2398 24.0507 26.2712 24.0507 27.5388C24.0507 27.9513 24.3851 28.2851 24.797 28.2851C25.209 28.2851 25.5433 27.9513 25.5433 27.5388C25.5433 26.2712 26.5746 25.2398 27.8428 25.2398C29.1129 25.2408 30.1463 26.2717 30.1463 27.5393Z" fill="black"/>
<path d="M24.797 12.5349C27.8179 12.5349 30.2756 10.0757 30.2756 7.05281C30.2756 4.03241 27.8184 1.5752 24.797 1.5752C21.7746 1.5752 19.3149 4.03241 19.3149 7.05281C19.3154 10.0757 21.7746 12.5349 24.797 12.5349ZM24.797 3.06773C26.995 3.06773 28.7831 4.85529 28.7831 7.05281C28.7831 9.25281 26.995 11.0424 24.797 11.0424C22.597 11.0424 20.8075 9.25281 20.8075 7.05281C20.808 4.85529 22.597 3.06773 24.797 3.06773Z" fill="black"/>
<path d="M40.395 37.4209L30.3169 15.1229C30.196 14.8557 29.9304 14.6841 29.6368 14.6841H19.3129C19.0129 14.6841 18.7428 14.8632 18.6254 15.1398L9.18907 37.4378C9.09205 37.6687 9.11643 37.9323 9.25474 38.1408C9.39255 38.3498 9.62638 38.4751 9.87663 38.4751H17.6463L21.1503 47.696C21.2607 47.9856 21.5378 48.1771 21.8478 48.1771H28.2393C28.5612 48.1771 28.8473 47.9701 28.9483 47.6642L31.9741 38.4751H39.7149C39.9687 38.4751 40.2045 38.3463 40.3423 38.1333C40.4791 37.9204 40.4995 37.6522 40.395 37.4209ZM31.4343 36.9821C31.1124 36.9821 30.8264 37.1891 30.7254 37.495L27.6995 46.6841H22.3622L18.8582 37.4632C18.7478 37.1736 18.4707 36.9821 18.1607 36.9821H11.0025L19.807 16.1761H29.1547L38.5577 36.9821H31.4343Z" fill="black"/>
</svg>
