<svg width="50" height="50" viewBox="0 0 50 50" fill="none" xmlns="http://www.w3.org/2000/svg">
<path d="M43.8069 10.2128C43.626 10.0708 43.3908 10.0195 43.1671 10.0753L25.0282 14.5301L6.88569 10.0753C6.66248 10.0205 6.42731 10.0708 6.24595 10.2128C6.06559 10.3543 5.95996 10.5711 5.95996 10.8008V39.1472C5.95996 39.4915 6.19513 39.7909 6.52945 39.8731L24.8503 44.3678C24.9091 44.3822 24.9689 44.3892 25.0282 44.3892C25.0874 44.3892 25.1472 44.3822 25.206 44.3678L43.5234 39.8726C43.8577 39.7904 44.0929 39.491 44.0929 39.1467V10.8003C44.0929 10.5711 43.9872 10.3543 43.8069 10.2128ZM7.45468 11.7539L24.2808 15.8853V42.6892L7.45468 38.5608V11.7539ZM42.5981 38.5608L25.7755 42.6892V15.8853L42.5981 11.7539V38.5608Z" fill="black"/>
<path d="M8.64898 7.51192L24.8503 11.4854C24.9091 11.4998 24.9679 11.5063 25.0252 11.5068C25.0262 11.5068 25.0267 11.5073 25.0277 11.5073H25.0282C25.0292 11.5073 25.0302 11.5068 25.0312 11.5068C25.0889 11.5063 25.1477 11.4998 25.206 11.4854L41.4029 7.51192C41.8039 7.41327 42.0491 7.00869 41.9509 6.60811C41.8528 6.20752 41.4477 5.96239 41.0471 6.06004L25.0282 9.98967L9.00472 6.06004C8.60314 5.96239 8.19907 6.20702 8.10092 6.60811C8.00276 7.00919 8.2479 7.41327 8.64898 7.51192Z" fill="black"/>
</svg>
