<svg width="50" height="50" viewBox="0 0 50 50" fill="none" xmlns="http://www.w3.org/2000/svg">
<path d="M47.4236 29.9858C47.4236 26.503 44.635 23.6656 41.1752 23.5749C38.6366 17.1361 32.3982 12.5498 25.091 12.4522C25.6804 11.7227 26.2509 10.799 26.2743 9.92607C26.3216 8.05119 25.1473 7.3666 24.2898 6.86687C23.512 6.41347 23.1383 6.16235 23.1369 5.41449C23.1339 3.9392 24.5474 3.80268 24.8264 3.79072C25.2389 3.77827 25.5633 3.43349 25.5508 3.02094C25.5379 2.6084 25.1966 2.28952 24.7811 2.2965C23.6934 2.32988 21.6371 3.02493 21.6426 5.41848C21.6471 7.0562 22.7398 7.69295 23.5374 8.15831C24.3939 8.65754 24.804 8.93955 24.7806 9.8882C24.7616 10.6007 23.7258 11.8408 22.9465 12.5523C16.3663 13.2673 10.8707 17.6363 8.52892 23.5824C5.12494 23.7383 2.40155 26.5469 2.40155 29.9868C2.40155 33.4301 5.12544 36.2407 8.52942 36.3966C11.0944 42.9076 17.442 47.5293 24.8533 47.5293C32.2621 47.5293 38.6077 42.9101 41.1747 36.4026C44.6345 36.3114 47.4236 33.4715 47.4236 29.9858ZM3.89578 29.9858C3.89578 27.5513 5.674 25.5295 7.99929 25.1359C7.55486 26.6779 7.31172 28.3042 7.31172 29.9873C7.31172 31.6713 7.55536 33.2986 8.00029 34.8411C5.6745 34.447 3.89578 32.4227 3.89578 29.9858ZM24.8528 46.0336C16.005 46.0336 8.80644 38.8355 8.80644 29.9873C8.80644 21.139 16.005 13.9404 24.8528 13.9404C33.7011 13.9404 40.8992 21.139 40.8992 29.9873C40.8992 38.8355 33.7011 46.0336 24.8528 46.0336ZM41.6998 34.8605C42.1487 33.312 42.3939 31.6783 42.3939 29.9873C42.3939 28.2967 42.1487 26.6635 41.7003 25.1159C44.0864 25.4552 45.9284 27.507 45.9284 29.9858C45.9289 32.4675 44.0859 34.5212 41.6998 34.8605Z" fill="black"/>
<path d="M20.256 28.0899C20.256 28.5025 20.5904 28.8373 21.0034 28.8373C21.4164 28.8373 21.7508 28.5025 21.7508 28.0899C21.7508 26.1752 20.1928 24.6172 18.277 24.6172C16.3613 24.6172 14.8028 26.1752 14.8028 28.0899C14.8028 28.5025 15.1371 28.8373 15.5502 28.8373C15.9632 28.8373 16.2975 28.5025 16.2975 28.0899C16.2975 26.9998 17.1854 26.1119 18.277 26.1119C19.3682 26.1119 20.256 26.9998 20.256 28.0899Z" fill="black"/>
<path d="M31.2452 24.6172C29.3295 24.6172 27.771 26.1752 27.771 28.0899C27.771 28.5025 28.1058 28.8373 28.5184 28.8373C28.9309 28.8373 29.2657 28.5025 29.2657 28.0899C29.2657 26.9998 30.1536 26.1119 31.2452 26.1119C32.3369 26.1119 33.2242 26.9993 33.2242 28.0899C33.2242 28.5025 33.5591 28.8373 33.9716 28.8373C34.3842 28.8373 34.719 28.5025 34.719 28.0899C34.719 26.1752 33.1605 24.6172 31.2452 24.6172Z" fill="black"/>
<path d="M31.8371 33.0132C31.4246 33.0132 31.0898 33.348 31.0898 33.7605C31.0898 37.1999 28.2922 39.9985 24.8528 39.9985C21.4139 39.9985 18.6163 37.2004 18.6163 33.7605C18.6163 33.348 18.282 33.0132 17.8689 33.0132C17.4559 33.0132 17.1216 33.348 17.1216 33.7605C17.1216 38.0245 20.5898 41.4932 24.8528 41.4932C29.1162 41.4932 32.5845 38.0245 32.5845 33.7605C32.5845 33.348 32.2502 33.0132 31.8371 33.0132Z" fill="black"/>
</svg>
