<svg width="50" height="50" viewBox="0 0 50 50" fill="none" xmlns="http://www.w3.org/2000/svg">
<path d="M41.9315 30.9269C41.5762 30.9269 41.2879 31.2153 41.2879 31.5711V41.3588H8.75982V28.7601C8.75982 28.4043 8.47148 28.116 8.11615 28.116C7.76081 28.116 7.47247 28.4043 7.47247 28.7601V42.003C7.47247 42.3588 7.76081 42.6471 8.11615 42.6471H41.932C42.2874 42.6471 42.5757 42.3588 42.5757 42.003V31.5711C42.5752 31.2153 42.2869 30.9269 41.9315 30.9269Z" fill="black"/>
<path d="M8.1156 17.2021C8.47094 17.2021 8.75928 16.9138 8.75928 16.5585V8.26905H41.2873V18.0592C41.2873 18.4146 41.5757 18.7029 41.931 18.7029C42.2863 18.7029 42.5747 18.4146 42.5747 18.0592V7.62537C42.5747 7.27003 42.2863 6.98169 41.931 6.98169H8.11511C7.75977 6.98169 7.47144 7.27003 7.47144 7.62537V16.5585C7.47193 16.9138 7.76027 17.2021 8.1156 17.2021Z" fill="black"/>
<path d="M46.4174 27.6857L39.4675 20.6519C39.334 20.5174 39.1499 20.4519 38.9588 20.4628C38.7698 20.4777 38.5966 20.5755 38.4859 20.7298L28.931 34.0669L21.2511 13.8489C21.1603 13.6102 20.9365 13.4469 20.6814 13.4345C20.4209 13.4211 20.1871 13.5615 20.073 13.7903L13.2516 27.4818L8.73402 20.7457C8.61442 20.5675 8.41392 20.4604 8.19903 20.4604C7.98415 20.4604 7.78415 20.5671 7.66405 20.7457L2.52906 28.4014C2.33104 28.6967 2.40995 29.0967 2.70524 29.2947C3.00102 29.4942 3.40052 29.4138 3.59854 29.119L8.19903 22.2604L12.799 29.119C12.9266 29.3096 13.1449 29.4188 13.3752 29.4029C13.604 29.388 13.808 29.2525 13.9102 29.047L20.5693 15.6807L28.1529 35.6456C28.2372 35.867 28.4363 36.0248 28.6715 36.055C28.6993 36.059 28.7271 36.061 28.7544 36.061C28.9603 36.061 29.1559 35.9622 29.2779 35.792L39.0874 22.0996L45.5008 28.5905C45.7509 28.8441 46.1583 28.8455 46.4114 28.5959C46.665 28.3463 46.6675 27.9388 46.4174 27.6857Z" fill="black"/>
</svg>
