<svg width="31" height="29" viewBox="0 0 31 29" fill="white" xmlns="http://www.w3.org/2000/svg">
<g clip-path="url(#clip0_1_19)">
<path fill-rule="evenodd" clip-rule="evenodd" d="M15.5 29C24.0604 29 31 22.5081 31 14.5C31 6.49188 24.0604 0 15.5 0C6.9396 0 0 6.49188 0 14.5C0 22.5081 6.9396 29 15.5 29ZM16.5961 6.67484C15.7023 6.69816 14.7593 6.89942 14.0931 7.49151C13.543 7.96758 13.2658 8.66044 13.2035 9.35305C13.1845 9.84846 13.1872 10.3451 13.19 10.8416C13.192 11.214 13.194 11.5862 13.1869 11.9577C12.9423 11.9594 12.6968 11.9589 12.4513 11.9584C12.1239 11.9578 11.7963 11.9571 11.47 11.9616C11.47 12.258 11.4705 12.5549 11.4709 12.852C11.4719 13.4472 11.4728 14.0434 11.47 14.6398C11.7963 14.6442 12.1239 14.6436 12.4513 14.6429C12.6968 14.6425 12.9423 14.642 13.1869 14.6437C13.1925 15.8254 13.1914 17.0072 13.1904 18.1889C13.1891 19.666 13.1878 21.1431 13.1994 22.6202C13.8708 22.6158 14.5407 22.6164 15.2109 22.6171C15.7137 22.6176 16.2165 22.618 16.7201 22.6163C16.7243 21.2869 16.7232 19.9584 16.7222 18.63C16.7212 17.3015 16.7201 15.9731 16.7243 14.6437C17.0629 14.642 17.4016 14.6425 17.7402 14.6429C18.1918 14.6436 18.6433 14.6442 19.0949 14.6398C19.2356 13.7496 19.3554 12.8516 19.4216 11.9499C18.9749 11.948 18.528 11.948 18.0812 11.948C17.6344 11.948 17.1876 11.948 16.7409 11.9461C16.7409 11.7902 16.7406 11.6344 16.7404 11.4786C16.7396 11.0113 16.7388 10.5441 16.7451 10.0767C16.8154 9.71671 17.2124 9.44191 17.5973 9.46522H19.4258C19.4299 8.5325 19.4299 7.60368 19.4258 6.67096C19.19 6.67096 18.9542 6.67072 18.7185 6.67049C18.0111 6.66977 17.3036 6.66904 16.5961 6.67484Z" fill="black"/>
</g>
<defs>
<clipPath id="clip0_1_19">
<rect width="31" height="29" fill="white"/>
</clipPath>
</defs>
</svg>
