<svg width="31" height="29" viewBox="0 0 31 29" fill="white" xmlns="http://www.w3.org/2000/svg">
<g clip-path="url(#clip0_1_23)">
<path fill-rule="evenodd" clip-rule="evenodd" d="M15.5 29C24.0604 29 31 22.5081 31 14.5C31 6.49188 24.0604 0 15.5 0C6.9396 0 0 6.49188 0 14.5C0 22.5081 6.9396 29 15.5 29ZM8.43098 9.33704C8.86699 8.92916 9.45838 8.7 10.075 8.7H20.925C21.5416 8.7 22.133 8.92916 22.569 9.33704C23.005 9.74493 23.25 10.2982 23.25 10.875V18.125C23.25 18.7018 23.005 19.2551 22.569 19.663C22.133 20.0708 21.5416 20.3 20.925 20.3H10.075C9.45838 20.3 8.86699 20.0708 8.43098 19.663C7.99496 19.2551 7.75 18.7018 7.75 18.125V10.875C7.75 10.2982 7.99496 9.74493 8.43098 9.33704ZM16.0503 14.413L20.6072 10.15H10.3928L14.9497 14.413C15.0218 14.4809 15.1075 14.5349 15.202 14.5717C15.2964 14.6085 15.3977 14.6275 15.5 14.6275C15.6023 14.6275 15.7036 14.6085 15.798 14.5717C15.8925 14.5349 15.9782 14.4809 16.0503 14.413ZM21.473 18.6377C21.6183 18.5017 21.7 18.3173 21.7 18.125V11.1723L17.143 15.4352C16.707 15.8426 16.1161 16.0713 15.5 16.0713C14.8839 16.0713 14.293 15.8426 13.857 15.4352L9.3 11.1723V18.125C9.3 18.3173 9.38165 18.5017 9.52698 18.6377C9.67234 18.7736 9.86947 18.85 10.075 18.85H20.925C21.1305 18.85 21.3277 18.7736 21.473 18.6377Z" fill="black"/>
</g>
<defs>
<clipPath id="clip0_1_23">
<rect width="31" height="29" fill="white"/>
</clipPath>
</defs>
</svg>
