<svg width="31" height="29" viewBox="0 0 31 29" fill="white" xmlns="http://www.w3.org/2000/svg">
<g clip-path="url(#clip0_1_21)">
<path fill-rule="evenodd" clip-rule="evenodd" d="M15.5 29C24.0604 29 31 22.5081 31 14.5C31 6.49188 24.0604 0 15.5 0C6.9396 0 0 6.49188 0 14.5C0 22.5081 6.9396 29 15.5 29ZM7.75 11.4236C7.75 9.12218 9.75155 7.25 12.2115 7.25H18.7885C21.2487 7.25 23.25 9.12241 23.25 11.4236V17.6328C23.25 19.934 21.2487 21.8064 18.7885 21.8064H12.2115C9.7513 21.8064 7.75 19.934 7.75 17.6328V11.4236ZM18.7885 20.4252C20.4344 20.4252 21.7735 19.1725 21.7735 17.6328V11.4236C21.7735 9.88395 20.4344 8.63124 18.7885 8.63124H12.2115C10.5656 8.63124 9.2265 9.88395 9.2265 11.4236V17.6328C9.2265 19.1725 10.5656 20.4252 12.2115 20.4252H18.7885ZM11.4664 14.5016C11.4664 12.4366 13.2816 10.7567 15.5123 10.7567C17.743 10.7567 19.5582 12.4366 19.5582 14.5016C19.5582 16.5663 17.743 18.2461 15.5123 18.2461C13.2813 18.2461 11.4664 16.5663 11.4664 14.5016ZM12.9401 14.5016C12.9401 15.806 14.0939 16.8675 15.5123 16.8675C16.9307 16.8675 18.0845 15.8062 18.0845 14.5016C18.0845 13.1969 16.9305 12.1356 15.5123 12.1356C14.0939 12.1356 12.9401 13.1969 12.9401 14.5016ZM19.6307 11.4943C20.1564 11.4943 20.5826 11.0956 20.5826 10.6037C20.5826 10.1119 20.1564 9.7132 19.6307 9.7132C19.1049 9.7132 18.6787 10.1119 18.6787 10.6037C18.6787 11.0956 19.1049 11.4943 19.6307 11.4943Z" fill="black"/>
</g>
<defs>
<clipPath id="clip0_1_21">
<rect width="31" height="29" fill="white"/>
</clipPath>
</defs>
</svg>
