<svg width="31" height="29" viewBox="0 0 31 29" fill="white" xmlns="http://www.w3.org/2000/svg">
<path d="M12.2063 24.7476C13.4342 25.3909 14.6436 25.714 15.7702 25.714C16.7133 25.7137 17.5983 25.4871 18.386 25.0323L21.2894 23.3567C21.3942 23.2963 21.4689 23.1998 21.4973 23.0877C21.5258 22.9759 21.5051 22.858 21.4405 22.76L18.9238 18.9443C18.8593 18.8466 18.7558 18.7767 18.6362 18.7501C18.5157 18.7238 18.3903 18.7428 18.2859 18.8032L15.3605 20.4923C14.9108 20.7519 14.3337 20.8348 13.7786 20.7206C13.2235 20.6062 12.7496 20.3051 12.4784 19.8936L8.50244 13.8657C7.92756 12.9941 8.21732 11.8474 9.14837 11.3096L9.14868 11.3093L12.185 9.55579C12.4027 9.43009 12.4701 9.16307 12.3357 8.95933L9.8187 5.14447C9.68433 4.94074 9.39859 4.87687 9.18111 5.00316L6.14731 6.75497C2.76599 8.70734 2.88461 13.8325 6.43645 19.2185C8.06471 21.6882 10.114 23.6518 12.2063 24.7476ZM6.63446 7.49246L9.27379 5.96865L11.3042 9.04574L8.66215 10.5716C8.66153 10.5719 8.66091 10.5724 8.66091 10.5724C7.29615 11.3616 6.87109 13.0427 7.7141 14.3205L11.6901 20.3481C12.092 20.9582 12.7808 21.4024 13.5797 21.5671C14.3677 21.7286 15.1947 21.6064 15.8474 21.2295L18.3783 19.7682L20.4084 22.8458L17.8992 24.2939C16.0667 25.3516 14.0381 24.7129 12.6591 23.9908C10.7022 22.9655 8.77212 21.109 7.2251 18.7631C3.95992 13.8116 3.71712 9.17694 6.63446 7.49246Z" fill="black"/>
<path d="M15.3157 9.69595C16.8152 9.77889 18.1422 10.4996 18.9571 11.6738C19.7362 12.7927 19.9237 14.1639 19.4712 15.436C19.3902 15.6632 19.5215 15.9088 19.7643 15.9839C19.8128 15.9992 19.8619 16.0062 19.9107 16.0062C20.1051 16.0062 20.2858 15.8915 20.3503 15.7097C20.8928 14.1856 20.6679 12.5419 19.734 11.201C18.7721 9.81443 17.1404 8.92812 15.3704 8.83016C15.1125 8.82005 14.8956 8.99835 14.8805 9.23734C14.8653 9.47661 15.0602 9.68179 15.3157 9.69595Z" fill="black"/>
<path d="M15.9645 6.47841C18.3925 6.73937 20.5478 7.98575 21.8777 9.89737C23.1661 11.7506 23.5312 14.0324 22.8791 16.1579C22.8084 16.3882 22.9505 16.6281 23.1964 16.694C23.2393 16.7055 23.282 16.711 23.3246 16.711C23.5257 16.711 23.7113 16.587 23.7694 16.3972C24.4957 14.0301 24.0891 11.4885 22.6543 9.42459C21.1733 7.29566 18.7737 5.90796 16.0702 5.61725C15.8209 5.58979 15.5864 5.76058 15.5571 5.99841C15.5277 6.23625 15.71 6.45096 15.9645 6.47841Z" fill="black"/>
<path d="M16.598 3.64465C19.8227 4.06397 22.69 5.76896 24.465 8.3227C26.2038 10.8215 26.7253 13.9079 25.8962 16.7902C25.8294 17.0214 25.9762 17.2592 26.2233 17.3213C26.2635 17.3315 26.3042 17.3364 26.3441 17.3364C26.5483 17.3364 26.7358 17.2092 26.7911 17.0156C27.6888 13.8957 27.1241 10.5548 25.2419 7.84993C23.3205 5.08581 20.2166 3.24008 16.7262 2.78608C16.4738 2.75458 16.2384 2.91844 16.2035 3.15569C16.168 3.39266 16.3447 3.61171 16.598 3.64465Z" fill="black"/>
</svg>
